<svg width="50" height="50" viewBox="0 0 50 50" fill="none" xmlns="http://www.w3.org/2000/svg">
<g clip-path="url(#clip0_1519_584)">
<path d="M36.75 33.5312H42.75C42.4375 36.4062 41.6146 38.9792 40.2812 41.25C38.9479 43.5208 37.0625 45.3229 34.625 46.6562C32.1875 47.9688 29.1458 48.625 25.5 48.625C22.8333 48.625 20.4062 48.125 18.2188 47.125C16.0521 46.125 14.1875 44.7083 12.625 42.875C11.0625 41.0208 9.85417 38.8021 9 36.2188C8.16667 33.6146 7.75 30.7188 7.75 27.5312V23C7.75 19.8125 8.16667 16.9271 9 14.3438C9.85417 11.7396 11.0729 9.51042 12.6562 7.65625C14.2604 5.80208 16.1875 4.375 18.4375 3.375C20.6875 2.375 23.2188 1.875 26.0312 1.875C29.4688 1.875 32.375 2.52083 34.75 3.8125C37.125 5.10417 38.9688 6.89583 40.2812 9.1875C41.6146 11.4583 42.4375 14.0938 42.75 17.0938H36.75C36.4583 14.9688 35.9167 13.1458 35.125 11.625C34.3333 10.0833 33.2083 8.89583 31.75 8.0625C30.2917 7.22917 28.3854 6.8125 26.0312 6.8125C24.0104 6.8125 22.2292 7.19792 20.6875 7.96875C19.1667 8.73958 17.8854 9.83333 16.8438 11.25C15.8229 12.6667 15.0521 14.3646 14.5312 16.3438C14.0104 18.3229 13.75 20.5208 13.75 22.9375V27.5312C13.75 29.7604 13.9792 31.8542 14.4375 33.8125C14.9167 35.7708 15.6354 37.4896 16.5938 38.9688C17.5521 40.4479 18.7708 41.6146 20.25 42.4688C21.7292 43.3021 23.4792 43.7188 25.5 43.7188C28.0625 43.7188 30.1042 43.3125 31.625 42.5C33.1458 41.6875 34.2917 40.5208 35.0625 39C35.8542 37.4792 36.4167 35.6562 36.75 33.5312Z" fill="white"/>
</g>
<defs>
<clipPath id="clip0_1519_584">
<rect width="50" height="50" fill="white"/>
</clipPath>
</defs>
</svg>
