<svg width="50" height="50" viewBox="0 0 50 50" fill="none" xmlns="http://www.w3.org/2000/svg">
<path d="M10.0833 13C9.5308 13 9.0009 13.2195 8.61019 13.6102C8.21949 14.0009 8 14.5308 8 15.0833C8 15.6359 8.21949 16.1658 8.61019 16.5565C9.0009 16.9472 9.5308 17.1667 10.0833 17.1667H39.25C39.8025 17.1667 40.3324 16.9472 40.7231 16.5565C41.1138 16.1658 41.3333 15.6359 41.3333 15.0833C41.3333 14.5308 41.1138 14.0009 40.7231 13.6102C40.3324 13.2195 39.8025 13 39.25 13H10.0833Z" fill="#E16F47"/>
<path d="M10.0833 32.334C9.5308 32.334 9.0009 32.5535 8.61019 32.9442C8.21949 33.3349 8 33.8648 8 34.4173C8 34.9699 8.21949 35.4998 8.61019 35.8905C9.0009 36.2812 9.5308 36.5007 10.0833 36.5007H39.25C39.8025 36.5007 40.3324 36.2812 40.7231 35.8905C41.1138 35.4998 41.3333 34.9699 41.3333 34.4173C41.3333 33.8648 41.1138 33.3349 40.7231 32.9442C40.3324 32.5535 39.8025 32.334 39.25 32.334H10.0833Z" fill="#E16F47"/>
</svg>
