<svg width="50" height="50" viewBox="0 0 50 50" fill="none" xmlns="http://www.w3.org/2000/svg">
<path d="M15.6252 22.9159C19.646 22.9159 22.9168 19.6451 22.9168 15.6242C22.9168 11.6034 19.646 8.33255 15.6252 8.33255C11.6043 8.33255 8.3335 11.6034 8.3335 15.6242C8.3335 19.6451 11.6043 22.9159 15.6252 22.9159ZM15.6252 12.4992C17.3543 12.4992 18.7502 13.8951 18.7502 15.6242C18.7502 17.3534 17.3543 18.7492 15.6252 18.7492C13.896 18.7492 12.5002 17.3534 12.5002 15.6242C12.5002 13.8951 13.896 12.4992 15.6252 12.4992ZM8.33766 38.7138L38.7293 8.32422L41.6752 11.2701L11.2856 41.6596L8.33766 38.7138ZM34.3752 27.0826C30.3543 27.0826 27.0835 30.3534 27.0835 34.3742C27.0835 38.3951 30.3543 41.6659 34.3752 41.6659C38.396 41.6659 41.6668 38.3951 41.6668 34.3742C41.6668 30.3534 38.396 27.0826 34.3752 27.0826ZM34.3752 37.4992C32.646 37.4992 31.2502 36.1034 31.2502 34.3742C31.2502 32.6451 32.646 31.2492 34.3752 31.2492C36.1043 31.2492 37.5002 32.6451 37.5002 34.3742C37.5002 36.1034 36.1043 37.4992 34.3752 37.4992Z" fill="black"/>
</svg>
