<svg width="50" height="50" viewBox="0 0 50 50" fill="none" xmlns="http://www.w3.org/2000/svg">
<path d="M27.207 24.9999L36.4153 15.7916C36.5688 15.6485 36.6919 15.476 36.7773 15.2844C36.8627 15.0927 36.9087 14.8858 36.9124 14.676C36.9161 14.4662 36.8775 14.2578 36.7989 14.0633C36.7203 13.8687 36.6033 13.692 36.455 13.5436C36.3066 13.3952 36.1298 13.2782 35.9353 13.1997C35.7407 13.1211 35.5323 13.0825 35.3225 13.0862C35.1127 13.0899 34.9058 13.1358 34.7142 13.2212C34.5225 13.3066 34.35 13.4297 34.207 13.5832L24.9986 22.7916L15.7903 13.5832C15.4941 13.3072 15.1023 13.157 14.6975 13.1641C14.2927 13.1713 13.9065 13.3353 13.6202 13.6215C13.334 13.9078 13.17 14.294 13.1628 14.6988C13.1557 15.1036 13.306 15.4954 13.582 15.7916L22.7903 24.9999L13.582 34.2082C13.2894 34.5012 13.125 34.8983 13.125 35.3124C13.125 35.7265 13.2894 36.1236 13.582 36.4166C13.8749 36.7092 14.2721 36.8735 14.6861 36.8735C15.1002 36.8735 15.4973 36.7092 15.7903 36.4166L24.9986 27.2082L34.207 36.4166C34.4999 36.7092 34.8971 36.8735 35.3111 36.8735C35.7252 36.8735 36.1223 36.7092 36.4153 36.4166C36.7079 36.1236 36.8723 35.7265 36.8723 35.3124C36.8723 34.8983 36.7079 34.5012 36.4153 34.2082L27.207 24.9999Z" fill="white"/>
</svg>
