<svg width="50" height="50" viewBox="0 0 50 50" fill="none" xmlns="http://www.w3.org/2000/svg">
<path d="M22.1979 35.4791L30.4681 27.209L38.7383 35.4791L40.9478 33.2695L32.6777 24.9993L40.9478 16.7291L38.7383 14.5195L30.4681 22.7896L22.1979 14.5195L19.9883 16.7291L28.2584 24.9993L19.9883 33.2695L22.1979 35.4791Z" fill="white"/>
<path d="M46.0938 6.25H19.0082C18.6899 6.25053 18.375 6.31564 18.0826 6.4414C17.7902 6.56716 17.5263 6.75095 17.307 6.98164L1.5625 23.596V26.404L17.307 43.0184C17.5263 43.2491 17.7902 43.4328 18.0826 43.5586C18.375 43.6844 18.6899 43.7495 19.0082 43.75H46.0938C46.7151 43.7493 47.3109 43.5021 47.7502 43.0627C48.1896 42.6234 48.4368 42.0276 48.4375 41.4062V8.59375C48.4368 7.97237 48.1896 7.37665 47.7502 6.93727C47.3109 6.49789 46.7151 6.25072 46.0938 6.25V6.25ZM45.3125 40.625H19.3441L4.6875 25.1585V24.8415L19.3441 9.375H45.3125V40.625Z" fill="white"/>
</svg>
